<svg width="72" height="78" viewBox="0 0 72 78" fill="none" xmlns="http://www.w3.org/2000/svg">
<rect width="72" height="78" fill="white"/>
<path d="M26.9306 58.2764V59.7764V58.2764ZM32.0833 75V76.5V75ZM40.9167 75L40.9167 76.5L40.9167 75ZM31.7611 57.9224C31.7611 58.7509 32.4327 59.4224 33.2611 59.4224C34.0895 59.4224 34.7611 58.7509 34.7611 57.9224H31.7611ZM37.65 57.9224C37.65 58.7509 38.3216 59.4224 39.15 59.4224C39.9784 59.4224 40.65 58.7509 40.65 57.9224H37.65ZM46.8056 56.7764H26.9306V59.7764H46.8056V56.7764ZM46.0694 65.5364H26.9306V68.5364H46.0694V65.5364ZM26.9306 65.5364C26.4305 65.5364 25.8952 65.285 25.4503 64.7833C25.001 64.2766 24.75 63.627 24.75 63.0545H21.75C21.75 64.4369 22.3229 65.7782 23.2057 66.7737C24.0929 67.7742 25.3979 68.5364 26.9306 68.5364V65.5364ZM48.25 63.0545C48.25 63.627 47.999 64.2766 47.5497 64.7833C47.1048 65.285 46.5695 65.5364 46.0694 65.5364V68.5364C47.6021 68.5364 48.9071 67.7742 49.7943 66.7737C50.6771 65.7782 51.25 64.4369 51.25 63.0545H48.25ZM46.0694 59.7764C46.5729 59.7764 47.0835 60.0638 47.5403 60.7574C48.0034 61.4607 48.25 62.368 48.25 63.0545H51.25C51.25 61.7863 50.8341 60.3046 50.0458 59.1075C49.2512 57.9007 47.9215 56.7764 46.0694 56.7764L46.0694 59.7764ZM26.9306 56.7764C25.0785 56.7764 23.7488 57.9007 22.9542 59.1075C22.1659 60.3046 21.75 61.7863 21.75 63.0545H24.75C24.75 62.368 24.9966 61.4607 25.4597 60.7574C25.9165 60.0638 26.4271 59.7764 26.9306 59.7764L26.9306 56.7764ZM25.4306 67.0364C25.4306 68.721 25.4077 71.0415 26.1897 72.9215C26.6022 73.9132 27.2582 74.8437 28.288 75.5118C29.3118 76.1759 30.5804 76.5 32.0833 76.5L32.0833 73.5C31.0099 73.5 30.3462 73.271 29.9207 72.995C29.5014 72.7229 29.1912 72.3262 28.9596 71.7694C28.4534 70.5524 28.4306 68.8911 28.4306 67.0364H25.4306ZM32.0833 76.5H40.9167V73.5H32.0833V76.5ZM40.9167 76.5C42.5643 76.5 43.9247 76.192 44.9959 75.5287C46.0948 74.8482 46.7457 73.8829 47.1143 72.8492C47.47 71.8515 47.5676 70.7792 47.592 69.8117C47.6149 68.9019 47.5694 67.793 47.5694 67.0364H44.5694C44.5694 68.0494 44.616 68.8208 44.5929 69.7361C44.5713 70.5935 44.4849 71.2909 44.2885 71.8417C44.105 72.3565 43.8358 72.7185 43.4165 72.9781C42.9694 73.2549 42.2135 73.5 40.9167 73.5L40.9167 76.5ZM28.1633 57.0678C26.99 55.3753 25.3023 53.5249 23.5305 51.5808C21.7304 49.6057 19.7938 47.4823 17.9974 45.1501C14.3999 40.4799 11.5 35.1403 11.5 28.8994H8.5C8.5 36.1082 11.857 42.0947 15.6207 46.9808C17.5048 49.4268 19.5248 51.6392 21.3132 53.6016C23.13 55.5951 24.6628 57.2841 25.6978 58.777L28.1633 57.0678ZM11.5 28.8994C11.5 23.492 13.0885 17.1071 16.8976 12.112C20.6616 7.17616 26.6609 3.5 35.7639 3.5V0.5C25.728 0.5 18.8453 4.61051 14.5121 10.2929C10.224 15.916 8.5 22.9808 8.5 28.8994H11.5ZM35.7639 3.5C44.9523 3.5 51.3309 6.71258 55.4306 11.3943C59.5598 16.1097 61.5 22.4581 61.5 28.8994H64.5C64.5 21.891 62.3916 14.7897 57.6875 9.41786C52.9539 4.01226 45.7144 0.5 35.7639 0.5V3.5ZM61.5 28.8994C61.5 34.7928 58.7786 39.9588 55.2676 44.6338C53.5155 46.9667 51.5994 49.1358 49.7676 51.1965C47.9568 53.2335 46.1977 55.1975 44.8567 57.0397L47.2822 58.8052C48.5176 57.108 50.163 55.2672 52.0098 53.1896C53.8355 51.1357 55.83 48.8805 57.6664 46.4353C61.3325 41.5539 64.5 35.7478 64.5 28.8994H61.5ZM34.7611 57.9224V34.9591H31.7611V57.9224H34.7611ZM34.7611 34.9591C34.7611 34.6147 34.8881 34.4159 35.0895 34.2626C35.3327 34.0776 35.732 33.9388 36.2056 33.9388C36.6792 33.9388 37.0784 34.0776 37.3216 34.2626C37.523 34.4159 37.65 34.6147 37.65 34.9591H40.65C40.65 33.6234 40.0409 32.562 39.1381 31.8751C38.2772 31.22 37.2042 30.9388 36.2056 30.9388C35.2069 30.9388 34.134 31.22 33.273 31.8751C32.3702 32.562 31.7611 33.6234 31.7611 34.9591H34.7611ZM37.65 34.9591V57.9224H40.65V34.9591H37.65Z" fill="#1A6534"/>
</svg>
