<svg width="79" height="78" viewBox="0 0 79 78" fill="none" xmlns="http://www.w3.org/2000/svg">
<rect width="79" height="78" fill="white"/>
<path d="M32.3897 42.62H13.8756C8.59756 42.62 2 40.001 2 32.5807C2 25.1603 8.59756 20.7954 13.8756 22.1048C13.4358 17.74 17.8341 7.70062 27.5106 5.5182C37.5233 3.25993 46.8634 8.57356 49.5024 17.74C60.9382 13.8115 66.2162 24.2874 66.2162 29.9618C66.2162 35.6361 64 38 59.9375 40.5M65.3301 73H24.8651C18.2675 73 12.9895 66.0162 12.9895 60.3418C12.9895 54.6674 18.2675 44.1915 29.7033 48.12C32.3423 38.9536 41.6823 33.6399 51.6951 35.8982C61.3715 38.0806 65.7699 48.12 65.3301 52.4849C70.6081 51.1754 77.2057 55.5403 77.2057 62.9607C77.2057 70.3811 70.6081 73 65.3301 73Z" stroke="#1A6534" stroke-width="3" stroke-linecap="round" stroke-linejoin="round"/>
</svg>
