<svg width="72" height="78" viewBox="0 0 72 78" fill="none" xmlns="http://www.w3.org/2000/svg">
<rect width="72" height="78" fill="white"/>
<path d="M17 36.3788C16.1716 36.3788 15.5 37.0504 15.5 37.8788C15.5 38.7072 16.1716 39.3788 17 39.3788V36.3788ZM56 39.3788C56.8284 39.3788 57.5 38.7072 57.5 37.8788C57.5 37.0504 56.8284 36.3788 56 36.3788V39.3788ZM17 52.0758C16.1716 52.0758 15.5 52.7473 15.5 53.5758C15.5 54.4042 16.1716 55.0758 17 55.0758V52.0758ZM56 55.0758C56.8284 55.0758 57.5 54.4042 57.5 53.5758C57.5 52.7473 56.8284 52.0758 56 52.0758V55.0758ZM41.8444 10.5693H43.3444C43.3444 9.74083 42.6729 9.06926 41.8444 9.06926V10.5693ZM31.1556 10.5693V9.06926C30.3271 9.06926 29.6556 9.74083 29.6556 10.5693H31.1556ZM44.7333 10.5693V12.0693H46.2333V10.5693H44.7333ZM28.2667 10.5693H26.7667V12.0693H28.2667V10.5693ZM17 39.3788H56V36.3788H17V39.3788ZM17 55.0758H56V52.0758H17V55.0758ZM22.7778 77.5H50.2222V74.5H22.7778V77.5ZM50.2222 77.5C51.8696 77.5 53.6203 76.7869 54.9449 75.8024C56.2242 74.8516 57.5 73.3407 57.5 71.5152H54.5C54.5 71.932 54.1389 72.6636 53.1554 73.3946C52.2172 74.0919 51.079 74.5 50.2222 74.5V77.5ZM57.5 71.5152V33.3939H54.5V71.5152H57.5ZM57.5 33.3939C57.5 32.0885 56.9019 30.9322 56.1755 29.9832C55.4412 29.0241 54.4677 28.1355 53.4706 27.3375C52.4668 26.5342 51.3794 25.7763 50.3903 25.0964C49.3786 24.401 48.498 23.8058 47.8198 23.2794L45.9802 25.6492C46.7465 26.244 47.7256 26.9052 48.6909 27.5687C49.679 28.2478 50.686 28.9515 51.5961 29.6798C52.5129 30.4135 53.2727 31.1266 53.7933 31.8068C54.3217 32.4971 54.5 33.0176 54.5 33.3939H57.5ZM47.8198 23.2794C47.0281 22.6648 46.2916 22.2061 45.6724 21.8285C45.0241 21.4331 44.5797 21.1689 44.2168 20.8831C43.8847 20.6217 43.6986 20.3986 43.5777 20.1494C43.4537 19.8937 43.3444 19.4982 43.3444 18.8182H40.3444C40.3444 19.8199 40.5061 20.6909 40.8785 21.4587C41.2542 22.2332 41.7903 22.7909 42.361 23.2402C42.9009 23.6653 43.5398 24.0418 44.1103 24.3897C44.7098 24.7553 45.3275 25.1425 45.9802 25.6492L47.8198 23.2794ZM43.3444 18.8182V10.5693H40.3444V18.8182H43.3444ZM41.8444 9.06926H31.1556V12.0693H41.8444V9.06926ZM29.6556 10.5693V18.8182H32.6556V10.5693H29.6556ZM29.6556 18.8182C29.6556 19.0903 29.4593 19.5402 28.2067 20.4084C27.6299 20.8081 26.9781 21.2013 26.214 21.6811C25.4732 22.1464 24.6634 22.6715 23.8802 23.2794L25.7198 25.6492C26.3811 25.1359 27.0879 24.6749 27.8096 24.2217C28.508 23.783 29.2645 23.3253 29.9156 22.8741C31.1185 22.0404 32.6556 20.7885 32.6556 18.8182H29.6556ZM23.8802 23.2794C22.5054 24.3465 20.4413 25.8231 18.7756 27.4287C17.1703 28.9762 15.5 31.0363 15.5 33.3939H18.5C18.5 32.3879 19.2852 31.1044 20.8577 29.5886C22.3698 28.1309 24.2057 26.8245 25.7198 25.6492L23.8802 23.2794ZM15.5 33.3939V71.5152H18.5V33.3939H15.5ZM15.5 71.5152C15.5 72.0725 15.4736 73.6537 16.5142 75.0673C17.6161 76.5641 19.6035 77.5 22.7778 77.5V74.5C20.1743 74.5 19.2727 73.7541 18.9302 73.2888C18.5264 72.7403 18.5 72.079 18.5 71.5152H15.5ZM34.0444 3.5H38.9556V0.5H34.0444V3.5ZM43.2333 6.48485V10.5693H46.2333V6.48485H43.2333ZM44.7333 9.06926H28.2667V12.0693H44.7333V9.06926ZM29.7667 10.5693V6.48485H26.7667V10.5693H29.7667ZM38.9556 3.5C41.6938 3.5 43.2333 5.16772 43.2333 6.48485H46.2333C46.2333 2.84815 42.5992 0.5 38.9556 0.5V3.5ZM34.0444 0.5C30.4008 0.5 26.7667 2.84815 26.7667 6.48485H29.7667C29.7667 5.16772 31.3062 3.5 34.0444 3.5V0.5Z" fill="#1A6534"/>
</svg>
