<svg width="72" height="78" viewBox="0 0 72 78" fill="none" xmlns="http://www.w3.org/2000/svg">
<rect width="72" height="78" fill="white"/>
<path d="M33.8435 39.453C33.6765 40.2644 34.199 41.0575 35.0104 41.2245C35.8219 41.3914 36.615 40.8689 36.7819 40.0575L33.8435 39.453ZM65.7711 33.4269V34.9269C66.394 34.9269 66.9521 34.5419 67.1733 33.9596C67.3945 33.3773 67.2328 32.7189 66.7671 32.3053L65.7711 33.4269ZM53.5012 41.5984L52.5052 40.4767L53.5012 41.5984ZM36.937 42.8693C36.169 42.5587 35.2946 42.9294 34.984 43.6973C34.6733 44.4653 35.044 45.3397 35.812 45.6504L36.937 42.8693ZM35.3359 50.836C35.6672 51.5954 36.5512 51.9424 37.3106 51.6112C38.0699 51.28 38.417 50.396 38.0857 49.6366L35.3359 50.836ZM4.42169 46.367L3.11276 45.6344C2.85277 46.0989 2.85845 46.6665 3.12768 47.1257C3.39691 47.5849 3.88936 47.867 4.42169 47.867V46.367ZM16.8207 53.106L15.7694 54.176L15.7694 54.176L16.8207 53.106ZM36.7099 55.0335L38.2099 55.0274L38.2099 55.0274L36.7099 55.0335ZM34.8627 68.4492C34.8627 69.2776 35.5343 69.9492 36.3627 69.9492C37.1912 69.9492 37.8627 69.2776 37.8627 68.4492H34.8627ZM23.1787 14.4721C22.5603 13.9209 21.6121 13.9754 21.0609 14.5939C20.5097 15.2123 20.5643 16.1605 21.1827 16.7117L23.1787 14.4721ZM1.31377 74.6662C0.577122 75.0452 0.287181 75.9496 0.666173 76.6862C1.04516 77.4229 1.94957 77.7128 2.68623 77.3338L1.31377 74.6662ZM68.3856 77.3684C69.1414 77.7077 70.0291 77.3701 70.3684 76.6144C70.7077 75.8586 70.3701 74.9709 69.6144 74.6316L68.3856 77.3684ZM36.7819 40.0575C38.0621 33.835 44.1075 27.6634 51.4562 27.6634V24.6634C42.4451 24.6634 35.3596 32.0836 33.8435 39.453L36.7819 40.0575ZM51.4562 27.6634C53.9922 27.6634 55.7863 28.076 57.6603 29.0757C59.6096 30.1156 61.6968 31.815 64.7751 34.5485L66.7671 32.3053C63.7105 29.5911 61.3778 27.6587 59.0723 26.4288C56.6915 25.1587 54.3956 24.6634 51.4562 24.6634V27.6634ZM65.7711 31.9269C61.6878 31.9269 58.781 33.7597 56.6875 35.7426C55.6513 36.7241 54.7997 37.7556 54.1073 38.6134C53.3684 39.529 52.8969 40.129 52.5052 40.4767L54.4972 42.72C55.128 42.1598 55.8068 41.2844 56.4418 40.4976C57.1235 39.653 57.8695 38.7551 58.7505 37.9207C60.4913 36.2718 62.697 34.9269 65.7711 34.9269V31.9269ZM52.5052 40.4767C51.0348 41.7825 49.1939 43.1767 46.7387 43.8632C44.3146 44.541 41.1402 44.5697 36.937 42.8693L35.812 45.6504C40.5556 47.5694 44.4108 47.6292 47.5465 46.7524C50.6511 45.8843 52.9002 44.1381 54.4972 42.72L52.5052 40.4767ZM38.0857 49.6366C38.0342 49.5185 37.9818 49.4009 37.9285 49.2838L35.1982 50.527C35.2449 50.6294 35.2908 50.7325 35.3359 50.836L38.0857 49.6366ZM37.9285 49.2838C34.5572 41.8799 27.6735 36.745 18.8872 36.745V39.745C26.3751 39.745 32.2612 44.0768 35.1982 50.527L37.9285 49.2838ZM18.8872 36.745C16.0267 36.745 13.1197 37.0513 10.3863 38.3563C7.62333 39.6755 5.17655 41.9471 3.11276 45.6344L5.73062 47.0996C7.54152 43.8641 9.56103 42.0747 11.6789 41.0636C13.8264 40.0383 16.2148 39.745 18.8872 39.745V36.745ZM4.42169 47.867C10.8925 47.867 13.4901 51.9364 15.7694 54.176L17.872 52.0361C16.0183 50.2147 12.4164 44.867 4.42169 44.867V47.867ZM15.7694 54.176C17.4531 55.8303 20.3935 57.9845 24.1789 58.9164C28.0233 59.8628 32.6541 59.5226 37.5388 56.2836L35.8809 53.7834C31.7251 56.539 27.9612 56.7579 24.896 56.0034C21.7719 55.2343 19.288 53.4273 17.872 52.0361L15.7694 54.176ZM37.8627 68.4492C37.8627 66.8898 37.953 64.9513 38.0435 62.6602C38.1332 60.3868 38.2211 57.8053 38.2099 55.0274L35.2099 55.0396C35.2209 57.7499 35.1352 60.2784 35.0458 62.5418C34.9571 64.7877 34.8627 66.8129 34.8627 68.4492H37.8627ZM38.2099 55.0274C38.2031 53.3581 38.1606 51.6156 38.061 49.8222L35.0656 49.9885C35.1619 51.7221 35.2033 53.4125 35.2099 55.0396L38.2099 55.0274ZM38.061 49.8222C37.4213 38.2991 34.4157 24.4871 23.1787 14.4721L21.1827 16.7117C31.54 25.9427 34.4433 38.7776 35.0656 49.9885L38.061 49.8222ZM2.68623 77.3338C10.478 73.3251 21.9267 71.0807 33.998 70.9874C46.0552 70.8942 58.5427 72.9491 68.3856 77.3684L69.6144 74.6316C59.2766 69.9901 46.3364 67.8919 33.9749 67.9875C21.6275 68.0829 9.6666 70.3688 1.31377 74.6662L2.68623 77.3338ZM32.7892 14.0817C32.7892 19.833 27.7741 24.6634 21.3735 24.6634V27.6634C29.2392 27.6634 35.7892 21.6754 35.7892 14.0817H32.7892ZM21.3735 24.6634C14.9729 24.6634 9.95783 19.833 9.95783 14.0817H6.95783C6.95783 21.6754 13.5078 27.6634 21.3735 27.6634V24.6634ZM9.95783 14.0817C9.95783 8.33032 14.9729 3.5 21.3735 3.5V0.5C13.5078 0.5 6.95783 6.48798 6.95783 14.0817H9.95783ZM21.3735 3.5C27.7741 3.5 32.7892 8.33032 32.7892 14.0817H35.7892C35.7892 6.48798 29.2392 0.5 21.3735 0.5V3.5Z" fill="#1A6534"/>
</svg>
